# Blender v2.61 (sub 0) OBJ File: ''
# www.blender.org
mtllib cube.mtl
o Cube
v 1.000000 -1.000000 -1.000000
v 1.000000 -1.000000 1.000000
v -1.000000 -1.000000 1.000000
v -1.000000 -1.000000 -1.000000
v 1.000000 1.000000 -0.999999
v 0.999999 1.000000 1.000001
v -1.000000 1.000000 1.000000
v -1.000000 1.000000 -1.000000
vt 0.499999 0.500000
vt 0.499999 0.750000
vt 0.249999 0.750000
vt 0.249999 0.500000
vt 0.499998 0.250000
vt 0.249998 0.250001
vt 0.249997 0.000001
vt 0.499997 0.000000
vt 0.749999 0.750000
vt 0.749999 0.999999
vt 0.499999 0.999999
vt 0.250000 1.000000
vt 0.000000 1.000000
vt 0.000000 0.750001
vn 0.577349 -0.577349 -0.577349
vn 0.577349 -0.577349 0.577349
vn -0.577349 -0.577349 0.577349
vn -0.577349 -0.577349 -0.577349
vn 0.577349 0.577349 -0.577349
vn -0.577349 0.577349 -0.577349
vn -0.577349 0.577349 0.577349
vn 0.577349 0.577349 0.577349
usemtl Material
s 1
f 1/1/1 2/2/2 3/3/3
f 1/1/1 3/3/3 4/4/4
f 5/5/5 8/6/6 7/7/7
f 5/5/5 7/7/7 6/8/8
f 1/9/1 5/10/5 6/11/8
f 1/9/1 6/11/8 2/2/2
f 2/2/2 6/11/8 7/12/7
f 2/2/2 7/12/7 3/3/3
f 3/3/3 7/12/7 8/13/6
f 3/3/3 8/13/6 4/14/4
f 5/5/5 1/1/1 4/4/4
f 5/5/5 4/4/4 8/6/6
